<svg width="31" height="27" viewBox="0 0 31 27" fill="none" xmlns="http://www.w3.org/2000/svg">
<path d="M11.5 16.5253H19.5V26.5253H11.5V16.5253Z" fill="url(#paint0_linear_141_43)"/>
<path d="M16.874 3.07122C16.5027 2.72015 16.011 2.52454 15.5 2.52454C14.989 2.52454 14.4973 2.72015 14.126 3.07122L4.438 12.2312C4.14161 12.5117 3.90555 12.8497 3.74427 13.2245C3.58298 13.5994 3.49987 14.0032 3.5 14.4112V23.5492C3.5 24.3449 3.81607 25.1079 4.37868 25.6705C4.94129 26.2332 5.70435 26.5492 6.5 26.5492H12.5V18.5492C12.5 18.284 12.6054 18.0296 12.7929 17.8421C12.9804 17.6546 13.2348 17.5492 13.5 17.5492H17.5C17.7652 17.5492 18.0196 17.6546 18.2071 17.8421C18.3946 18.0296 18.5 18.284 18.5 18.5492V26.5492H24.5C25.2956 26.5492 26.0587 26.2332 26.6213 25.6705C27.1839 25.1079 27.5 24.3449 27.5 23.5492V14.4092C27.4999 14.001 27.4164 13.5971 27.2548 13.2223C27.0932 12.8474 26.8568 12.5095 26.56 12.2292L16.874 3.07122Z" fill="url(#paint1_linear_141_43)"/>
<path d="M15.4756 0.75C16.3011 0.746787 17.1022 1.0474 17.7109 1.59863H17.71L29.5322 12.2949C29.7484 12.4906 29.9242 12.7269 30.0479 12.9912C30.1715 13.2556 30.2402 13.5421 30.249 13.834C30.2578 14.1259 30.2064 14.4162 30.0986 14.6875C29.9909 14.9587 29.8296 15.2053 29.625 15.4131C29.4204 15.6208 29.176 15.7863 28.9082 15.9014C28.6406 16.0163 28.3527 16.0789 28.0615 16.0869C27.7703 16.0949 27.4797 16.0482 27.2061 15.9482C26.9323 15.8483 26.68 15.6966 26.4639 15.501L15.6387 5.70508C15.5889 5.66005 15.5385 5.64539 15.4971 5.64551C15.4559 5.64572 15.4068 5.66051 15.3584 5.70508C14.2431 6.73123 11.9108 8.87745 10.2598 10.3965C9.13866 11.428 7.70299 12.7487 6.54785 13.8115C5.97045 14.3428 5.4627 14.8095 5.09961 15.1436C4.91805 15.3106 4.77194 15.445 4.67188 15.5371C4.62209 15.5829 4.58374 15.6185 4.55762 15.6426C4.54453 15.6546 4.53403 15.6638 4.52734 15.6699C4.52406 15.6729 4.5212 15.6752 4.51953 15.6768L4.51855 15.6787H4.51758V15.6797L4.50977 15.6865L4.50098 15.6934C4.06546 16.0715 3.49966 16.2683 2.92383 16.249C2.34787 16.2297 1.79592 15.9958 1.3877 15.5879C0.978468 15.179 0.746077 14.626 0.75 14.0459C0.753989 13.4661 0.993957 12.9171 1.4082 12.5137L1.41602 12.5059L1.42383 12.499L13.248 1.61621C13.8522 1.06034 14.6502 0.753221 15.4756 0.75Z" fill="url(#paint2_linear_141_43)" stroke="#479EF8" stroke-width="1.5"/>
<defs>
<linearGradient id="paint0_linear_141_43" x1="15.5" y1="16.5253" x2="9.092" y2="27.9213" gradientUnits="userSpaceOnUse">
<stop offset="1" stop-color="white" stop-opacity="0.91"/>
</linearGradient>
<linearGradient id="paint1_linear_141_43" x1="5.79" y1="1.35122" x2="29.36" y2="20.4872" gradientUnits="userSpaceOnUse">
<stop offset="1" stop-color="#81D653"/>
</linearGradient>
<linearGradient id="paint2_linear_141_43" x1="20.014" y1="-1.83323" x2="13.8462" y2="14.8302" gradientUnits="userSpaceOnUse">
<stop offset="1" stop-color="#479EF8"/>
</linearGradient>
</defs>
</svg>
