<svg xmlns="http://www.w3.org/2000/svg" width="800" height="230" viewBox="0 0 800 230"><style>text{font-family:Arial,sans-serif;fill:#24292f}.title{fill:#3182ed;font-weight:700}.muted{fill:#656d76}.bar{fill:#24292f}.border{stroke:#d0d7de;fill:none}@media(prefers-color-scheme:dark){text{fill:#e6edf3}.muted{fill:#9198a1}.bar{fill:#e6edf3}.border{stroke:#3d444d}}</style><text class="title" x="20" y="36" font-size="28">I'm an early 🐤</text><text x="20" y="82" font-size="22">🌞 Morning</text><text x="220" y="82" font-size="21">185 commits</text><rect x="390" y="64" width="280" height="20" rx="3" fill="none" stroke="#8c959f"/><rect class="bar" x="390" y="64" width="49.75984630163305" height="20" rx="3"/><text x="695" y="82" font-size="21">17.8%</text><text x="20" y="124" font-size="22">🌇 Daytime</text><text x="220" y="124" font-size="21">367 commits</text><rect x="390" y="106" width="280" height="20" rx="3" fill="none" stroke="#8c959f"/><rect class="bar" x="390" y="106" width="98.71277617675312" height="20" rx="3"/><text x="695" y="124" font-size="21">35.3%</text><text x="20" y="166" font-size="22">🌆 Evening</text><text x="220" y="166" font-size="21">363 commits</text><rect x="390" y="148" width="280" height="20" rx="3" fill="none" stroke="#8c959f"/><rect class="bar" x="390" y="148" width="97.63688760806917" height="20" rx="3"/><text x="695" y="166" font-size="21">34.9%</text><text x="20" y="208" font-size="22">🌙 Night</text><text x="220" y="208" font-size="21">126 commits</text><rect x="390" y="190" width="280" height="20" rx="3" fill="none" stroke="#8c959f"/><rect class="bar" x="390" y="190" width="33.89048991354467" height="20" rx="3"/><text x="695" y="208" font-size="21">12.1%</text></svg>