<svg xmlns="http://www.w3.org/2000/svg" width="650" height="350" viewBox="0 0 650 350"><style>text{font-family:Arial,sans-serif;fill:#24292f}.title{fill:#3182ed;font-weight:700}.muted{fill:#656d76}.bar{fill:#24292f}.border{stroke:#d0d7de;fill:none}@media(prefers-color-scheme:dark){text{fill:#e6edf3}.muted{fill:#9198a1}.bar{fill:#e6edf3}.border{stroke:#3d444d}}</style><rect class="border" x="1" y="1" width="648" height="348" rx="9"/><text class="title" x="30" y="48" font-size="29">Languages by lines of code</text><defs><clipPath id="bar"><rect x="30" y="78" width="590" height="15" rx="7"/></clipPath></defs><rect clip-path="url(#bar)" x="30" y="78" width="373.5907024990787" height="15" fill="#3178c6"/><circle cx="38" cy="126" r="7" fill="#3178c6"/><text x="54" y="132" font-size="17">TypeScript 63.32%</text><rect clip-path="url(#bar)" x="403.5907024990787" y="78" width="71.935114034968" height="15" fill="#f1e05a"/><circle cx="343" cy="126" r="7" fill="#f1e05a"/><text x="359" y="132" font-size="17">JavaScript 12.19%</text><rect clip-path="url(#bar)" x="475.5258165340467" y="78" width="63.0529433442068" height="15" fill="#563d7c"/><circle cx="38" cy="162" r="7" fill="#563d7c"/><text x="54" y="168" font-size="17">CSS 10.69%</text><rect clip-path="url(#bar)" x="538.5787598782535" y="78" width="33.24975773540612" height="15" fill="#3572a5"/><circle cx="343" cy="162" r="7" fill="#3572a5"/><text x="359" y="168" font-size="17">Python 5.64%</text><rect clip-path="url(#bar)" x="571.8285176136596" y="78" width="22.193347618982624" height="15" fill="#00add8"/><circle cx="38" cy="198" r="7" fill="#00add8"/><text x="54" y="204" font-size="17">Go 3.76%</text><rect clip-path="url(#bar)" x="594.0218652326423" y="78" width="10.605456754063903" height="15" fill="#e34c26"/><circle cx="343" cy="198" r="7" fill="#e34c26"/><text x="359" y="204" font-size="17">HTML 1.80%</text><rect clip-path="url(#bar)" x="604.6273219867062" y="78" width="9.35728226896147" height="15" fill="#8250df"/><circle cx="38" cy="234" r="7" fill="#8250df"/><text x="54" y="240" font-size="17">SQL 1.59%</text><rect clip-path="url(#bar)" x="613.9846042556677" y="78" width="3.6478905919445315" height="15" fill="#15803d"/><circle cx="343" cy="234" r="7" fill="#15803d"/><text x="359" y="240" font-size="17">C++ 0.62%</text><rect clip-path="url(#bar)" x="617.6324948476123" y="78" width="1.191805314807485" height="15" fill="#c026d3"/><circle cx="38" cy="270" r="7" fill="#c026d3"/><text x="54" y="276" font-size="17">SAS 0.20%</text><rect clip-path="url(#bar)" x="618.8243001624198" y="78" width="1.1756998375803567" height="15" fill="#8c959f"/><circle cx="343" cy="270" r="7" fill="#8c959f"/><text x="359" y="276" font-size="17">Other 0.20%</text><text class="muted" x="30" y="326" font-size="13">Public source code · dependencies, comments and blank lines excluded</text></svg>